<?xml version="1.0" encoding="utf-8"?><svg xmlns="http://www.w3.org/2000/svg" xmlns:xlink="http://www.w3.org/1999/xlink"><symbol viewBox="0 0 20 14" id="catalog" xmlns="http://www.w3.org/2000/svg">
    <rect width="20" height="2.5" rx="1"/>
    <rect y="5.5" width="20" height="2.5" rx="1"/>
    <rect y="11" width="20" height="2.5" rx="1"/>
</symbol><symbol viewBox="0 0 16 21" id="favorite-01" xmlns="http://www.w3.org/2000/svg">
    <path d="M1 0H15C15.2652 0 15.5196 0.105357 15.7071 0.292893C15.8946 0.48043 16 0.734784 16 1V20.143C16.0001 20.2324 15.9763 20.3202 15.9309 20.3973C15.8855 20.4743 15.8204 20.5378 15.7421 20.5811C15.6639 20.6244 15.5755 20.6459 15.4861 20.6434C15.3968 20.641 15.3097 20.6146 15.234 20.567L8 16.03L0.766 20.566C0.690368 20.6135 0.603387 20.6399 0.514102 20.6424C0.424817 20.6449 0.336486 20.6235 0.258295 20.5803C0.180104 20.5371 0.114907 20.4738 0.0694828 20.3969C0.0240588 20.32 6.64708e-05 20.2323 0 20.143V1C0 0.734784 0.105357 0.48043 0.292893 0.292893C0.48043 0.105357 0.734784 0 1 0ZM14 2H2V17.432L8 13.671L14 17.432V2Z"/>
</symbol><symbol viewBox="0 0 32 32" id="search" xmlns="http://www.w3.org/2000/svg">
    <path d="M14.5909 5.75C12.8918 5.75 11.2308 6.25385 9.81804 7.19782C8.40528 8.1418 7.30417 9.48351 6.65394 11.0533C6.00372 12.6231 5.83359 14.3504 6.16507 16.0169C6.49655 17.6833 7.31476 19.2141 8.51621 20.4155C9.71766 21.617 11.2484 22.4352 12.9149 22.7666C14.5813 23.0981 16.3087 22.928 17.8784 22.2778C19.4482 21.6276 20.7899 20.5264 21.7339 19.1137C22.6779 17.7009 23.1817 16.04 23.1817 14.3409C23.1816 12.0625 22.2764 9.87743 20.6654 8.26636C19.0543 6.6553 16.8693 5.75015 14.5909 5.75Z" stroke-width="2" stroke-miterlimit="10"/>
    <path d="M21 20.7502L26.9998 26.75" stroke-width="2" stroke-miterlimit="10" stroke-linecap="round"/>
</symbol></svg>