<?xml version="1.0" encoding="utf-8"?><svg xmlns="http://www.w3.org/2000/svg" xmlns:xlink="http://www.w3.org/1999/xlink"><symbol viewBox="0 0 20 14" id="catalog" xmlns="http://www.w3.org/2000/svg">
    <rect width="20" height="2.5" rx="1"/>
    <rect y="5.5" width="20" height="2.5" rx="1"/>
    <rect y="11" width="20" height="2.5" rx="1"/>
</symbol><symbol viewBox="0 0 24 24" id="fav-btn" xmlns="http://www.w3.org/2000/svg">
    <path d="M4.5 22V4.22222C4.5 3.61111 4.71 3.08778 5.13 2.65222C5.54929 2.21741 6.05357 2 6.64286 2H17.3571C17.9464 2 18.4511 2.21741 18.8711 2.65222C19.2904 3.08778 19.5 3.61111 19.5 4.22222V22L12 18.6667L4.5 22Z"/>
    <path d="M19.2969 22.4569L20 22.7694V22V4.22222C20 3.48336 19.7413 2.8353 19.2313 2.30546C18.7198 1.77595 18.0859 1.5 17.3571 1.5H6.64286C5.91403 1.5 5.28094 1.77537 4.77008 2.30515C4.25922 2.83494 4 3.4831 4 4.22222V22V22.7694L4.70307 22.4569L12 19.2138L19.2969 22.4569ZM17.5 18.9225L12.2031 16.5683L12 16.478L11.7969 16.5683L6.5 18.9225V4.22222C6.5 4.15545 6.50899 4.12777 6.51359 4.11632C6.51799 4.10538 6.5289 4.08279 6.56969 4.04049C6.59188 4.01747 6.60587 4.00619 6.61263 4.00131C6.61783 4.00072 6.62737 4 6.64286 4H17.3571C17.3733 4 17.383 4.00079 17.3881 4.00139C17.3947 4.00607 17.4088 4.01722 17.4314 4.04047C17.471 4.08191 17.4818 4.10422 17.4863 4.11533C17.491 4.12709 17.5 4.15517 17.5 4.22222V18.9225Z"/>
    <path d="M17.3836 3.9985C17.3836 3.99848 17.3839 3.99865 17.3846 3.99907M6.6175 3.99812C6.61749 3.99814 6.61715 3.99835 6.6165 3.99869M19.2969 22.4569L20 22.7694V22V4.22222C20 3.48336 19.7413 2.8353 19.2313 2.30546C18.7198 1.77595 18.0859 1.5 17.3571 1.5H6.64286C5.91403 1.5 5.28094 1.77537 4.77008 2.30515C4.25922 2.83494 4 3.4831 4 4.22222V22V22.7694L4.70307 22.4569L12 19.2138L19.2969 22.4569ZM17.5 18.9225L12.2031 16.5683L12 16.478L11.7969 16.5683L6.5 18.9225V4.22222C6.5 4.15545 6.50899 4.12777 6.51359 4.11632C6.51799 4.10538 6.5289 4.08279 6.56969 4.04049C6.59188 4.01747 6.60587 4.00619 6.61263 4.00131C6.61783 4.00072 6.62737 4 6.64286 4H17.3571C17.3733 4 17.383 4.00079 17.3881 4.00139C17.3947 4.00607 17.4088 4.01722 17.4314 4.04047C17.471 4.08191 17.4818 4.10422 17.4863 4.11533C17.491 4.12709 17.5 4.15517 17.5 4.22222V18.9225Z"/>
</symbol><symbol viewBox="0 0 16 21" id="favorite-01" xmlns="http://www.w3.org/2000/svg">
    <path d="M1 0H15C15.2652 0 15.5196 0.105357 15.7071 0.292893C15.8946 0.48043 16 0.734784 16 1V20.143C16.0001 20.2324 15.9763 20.3202 15.9309 20.3973C15.8855 20.4743 15.8204 20.5378 15.7421 20.5811C15.6639 20.6244 15.5755 20.6459 15.4861 20.6434C15.3968 20.641 15.3097 20.6146 15.234 20.567L8 16.03L0.766 20.566C0.690368 20.6135 0.603387 20.6399 0.514102 20.6424C0.424817 20.6449 0.336486 20.6235 0.258295 20.5803C0.180104 20.5371 0.114907 20.4738 0.0694828 20.3969C0.0240588 20.32 6.64708e-05 20.2323 0 20.143V1C0 0.734784 0.105357 0.48043 0.292893 0.292893C0.48043 0.105357 0.734784 0 1 0ZM14 2H2V17.432L8 13.671L14 17.432V2Z"/>
</symbol><symbol viewBox="0 0 24 24" id="mobile-search-btn" xmlns="http://www.w3.org/2000/svg">
    <mask id="dmask0_2287_796" style="mask-type:alpha" maskUnits="userSpaceOnUse" x="0" y="0" width="24" height="24">
        <rect width="24" height="24"/>
    </mask>
    <g mask="url(#dmask0_2287_796)">
        <path d="M19.6 21L13.3 14.7C12.8 15.1 12.225 15.4167 11.575 15.65C10.925 15.8833 10.2333 16 9.5 16C7.68333 16 6.146 15.371 4.888 14.113C3.62933 12.8543 3 11.3167 3 9.5C3 7.68333 3.62933 6.14567 4.888 4.887C6.146 3.629 7.68333 3 9.5 3C11.3167 3 12.8543 3.629 14.113 4.887C15.371 6.14567 16 7.68333 16 9.5C16 10.2333 15.8833 10.925 15.65 11.575C15.4167 12.225 15.1 12.8 14.7 13.3L21 19.6L19.6 21ZM9.5 14C10.75 14 11.8127 13.5627 12.688 12.688C13.5627 11.8127 14 10.75 14 9.5C14 8.25 13.5627 7.18733 12.688 6.312C11.8127 5.43733 10.75 5 9.5 5C8.25 5 7.18733 5.43733 6.312 6.312C5.43733 7.18733 5 8.25 5 9.5C5 10.75 5.43733 11.8127 6.312 12.688C7.18733 13.5627 8.25 14 9.5 14Z"/>
    </g>
</symbol><symbol viewBox="0 0 32 32" id="search" xmlns="http://www.w3.org/2000/svg">
    <path d="M14.5909 5.75C12.8918 5.75 11.2308 6.25385 9.81804 7.19782C8.40528 8.1418 7.30417 9.48351 6.65394 11.0533C6.00372 12.6231 5.83359 14.3504 6.16507 16.0169C6.49655 17.6833 7.31476 19.2141 8.51621 20.4155C9.71766 21.617 11.2484 22.4352 12.9149 22.7666C14.5813 23.0981 16.3087 22.928 17.8784 22.2778C19.4482 21.6276 20.7899 20.5264 21.7339 19.1137C22.6779 17.7009 23.1817 16.04 23.1817 14.3409C23.1816 12.0625 22.2764 9.87743 20.6654 8.26636C19.0543 6.6553 16.8693 5.75015 14.5909 5.75Z" stroke-width="2" stroke-miterlimit="10"/>
    <path d="M21 20.7502L26.9998 26.75" stroke-width="2" stroke-miterlimit="10" stroke-linecap="round"/>
</symbol><symbol viewBox="0 0 24 24" id="vk" xmlns="http://www.w3.org/2000/svg">
    <path d="M20 24H4C1.8 24 0 22.2 0 20V4C0 1.8 1.8 0 4 0H20C22.2 0 24 1.8 24 4V20C24 22.2 22.2 24 20 24ZM19 8.3C19.1 8 19 7.7 18.5 7.7H17C16.6 7.7 16.4 7.9 16.3 8.2C16.3 8.2 15.5 10.2 14.3 11.5C13.9 11.9 13.8 12 13.6 12C13.5 12 13.4 11.9 13.4 11.5V8.3C13.4 7.9 13.3 7.7 12.9 7.7H10.4C10.1 7.7 10 7.9 10 8C10 8.4 10.6 8.5 10.6 9.6V11.9C10.6 12.4 10.5 12.5 10.3 12.5C9.8 12.5 8.4 10.5 7.7 8.3C7.5 7.9 7.4 7.7 7 7.7H5.4C4.9 7.7 4.9 7.9 4.9 8.2C4.9 8.6 5.4 10.7 7.4 13.5C8.7 15.4 10.6 16.4 12.3 16.4C13.3 16.4 13.4 16.2 13.4 15.8V14.4C13.4 13.9 13.5 13.9 13.8 13.9C14 13.9 14.4 14 15.4 14.9C16.5 16 16.7 16.5 17.3 16.5H18.9C19.4 16.5 19.6 16.3 19.5 15.8C19.4 15.4 18.8 14.7 18.2 13.9L17.1 12.8C16.9 12.5 16.9 12.4 17.1 12.1C16.9 11.9 18.8 9.2 19 8.3Z"/>
</symbol></svg>