<?xml version="1.0" encoding="utf-8"?><svg viewBox="0 0 32 32" xmlns="http://www.w3.org/2000/svg" xmlns:xlink="http://www.w3.org/1999/xlink"><style>:root>svg{display:none}:root>svg:target{display:block}</style><svg fill="none" viewBox="0 0 20 14" id="catalog" xmlns="http://www.w3.org/2000/svg"><rect width="20" height="2.5" rx="1" fill="#fff"/><rect y="5.5" width="20" height="2.5" rx="1" fill="#fff"/><rect y="11" width="20" height="2.5" rx="1" fill="#fff"/></svg><svg fill="none" viewBox="0 0 24 24" id="fav-btn" xmlns="http://www.w3.org/2000/svg"><path d="M4.5 22V4.222c0-.61.21-1.134.63-1.57C5.55 2.217 6.054 2 6.643 2h10.714c.59 0 1.094.217 1.514.652.42.436.629.96.629 1.57V22L12 18.667 4.5 22Z" fill="#fff"/><path d="m19.297 22.457.703.312V4.222c0-.739-.259-1.387-.769-1.917a2.531 2.531 0 0 0-1.874-.805H6.643c-.729 0-1.362.275-1.873.805A2.68 2.68 0 0 0 4 4.222V22.77l.703-.313L12 19.214l7.297 3.243ZM17.5 18.922l-5.297-2.354-.203-.09-.203.09L6.5 18.922v-14.7c0-.067.009-.094.014-.106a.244.244 0 0 1 .056-.076.341.341 0 0 1 .043-.039.276.276 0 0 1 .03-.001h10.714l.031.001c.007.005.02.016.043.04.04.04.05.063.055.074.005.012.014.04.014.107v14.7Z" fill="#888"/><path d="M17.384 3.998V4M19.298 22.457l.703.312V4.222c0-.739-.259-1.387-.769-1.917a2.531 2.531 0 0 0-1.874-.805H6.643c-.729 0-1.362.275-1.873.805A2.68 2.68 0 0 0 4 4.222V22.77l.703-.313L12 19.214l7.297 3.243ZM17.5 18.922l-5.297-2.354-.203-.09-.203.09L6.5 18.922v-14.7c0-.067.009-.094.014-.106a.244.244 0 0 1 .056-.076.341.341 0 0 1 .043-.039.276.276 0 0 1 .03-.001h10.714l.031.001c.007.005.02.016.043.04.04.04.05.063.055.074.005.012.014.04.014.107v14.7Z" stroke="#fff"/></svg><svg fill="none" viewBox="0 0 16 21" id="favorite-01" xmlns="http://www.w3.org/2000/svg"><path d="M1 0h14a1 1 0 0 1 1 1v19.143a.5.5 0 0 1-.766.424L8 16.03.766 20.566A.5.5 0 0 1 0 20.143V1a1 1 0 0 1 1-1Zm13 2H2v15.432l6-3.761 6 3.761V2Z" fill="#fff"/></svg><svg fill="none" viewBox="0 0 24 24" id="mobile-search-btn" xmlns="http://www.w3.org/2000/svg"><mask id="da" style="mask-type:alpha" maskUnits="userSpaceOnUse" x="0" y="0" width="24" height="24"><path fill="#D9D9D9" d="M0 0h24v24H0z"/></mask><g mask="url(#da)"><path d="m19.6 21-6.3-6.3A6.096 6.096 0 0 1 9.5 16c-1.817 0-3.354-.629-4.612-1.887C3.629 12.854 3 11.317 3 9.5c0-1.817.63-3.354 1.888-4.613C6.146 3.629 7.683 3 9.5 3c1.817 0 3.354.629 4.613 1.887C15.371 6.146 16 7.683 16 9.5a6.096 6.096 0 0 1-1.3 3.8l6.3 6.3-1.4 1.4ZM9.5 14c1.25 0 2.313-.437 3.188-1.312S14 10.75 14 9.5c0-1.25-.437-2.313-1.312-3.188S10.75 5 9.5 5c-1.25 0-2.313.437-3.188 1.312S5 8.25 5 9.5c0 1.25.437 2.313 1.312 3.188S8.25 14 9.5 14Z" fill="#fff"/></g></svg><svg fill="none" viewBox="0 0 32 32" id="search" xmlns="http://www.w3.org/2000/svg"><path d="M14.59 5.75a8.591 8.591 0 1 0 0 17.182 8.591 8.591 0 0 0 0-17.182Z" stroke="#fff" stroke-width="2" stroke-miterlimit="10"/><path d="m21 20.75 6 6" stroke="#fff" stroke-width="2" stroke-miterlimit="10" stroke-linecap="round"/></svg><svg fill="none" viewBox="0 0 32 32" id="search2" xmlns="http://www.w3.org/2000/svg"><path d="M14.59 5.75a8.591 8.591 0 1 0 0 17.182 8.591 8.591 0 0 0 0-17.182Z" stroke="#888" stroke-width="2" stroke-miterlimit="10"/><path d="m21 20.75 6 6" stroke="#888" stroke-width="2" stroke-miterlimit="10" stroke-linecap="round"/></svg><svg fill="none" viewBox="0 0 24 24" id="vk" xmlns="http://www.w3.org/2000/svg"><path d="M20 24H4c-2.2 0-4-1.8-4-4V4c0-2.2 1.8-4 4-4h16c2.2 0 4 1.8 4 4v16c0 2.2-1.8 4-4 4ZM19 8.3c.1-.3 0-.6-.5-.6H17c-.4 0-.6.2-.7.5 0 0-.8 2-2 3.3-.4.4-.5.5-.7.5-.1 0-.2-.1-.2-.5V8.3c0-.4-.1-.6-.5-.6h-2.5c-.3 0-.4.2-.4.3 0 .4.6.5.6 1.6v2.3c0 .5-.1.6-.3.6-.5 0-1.9-2-2.6-4.2-.2-.4-.3-.6-.7-.6H5.4c-.5 0-.5.2-.5.5 0 .4.5 2.5 2.5 5.3 1.3 1.9 3.2 2.9 4.9 2.9 1 0 1.1-.2 1.1-.6v-1.4c0-.5.1-.5.4-.5.2 0 .6.1 1.6 1 1.1 1.1 1.3 1.6 1.9 1.6h1.6c.5 0 .7-.2.6-.7-.1-.4-.7-1.1-1.3-1.9l-1.1-1.1c-.2-.3-.2-.4 0-.7-.2-.2 1.7-2.9 1.9-3.8Z" fill="#fff"/></svg></svg>