<svg width="16" height="16" viewBox="0 0 16 16" fill="none" xmlns="http://www.w3.org/2000/svg">
<path fill-rule="evenodd" clip-rule="evenodd" d="M8 12C9.06087 12 10.0783 11.5786 10.8284 10.8284C11.5786 10.0783 12 9.06087 12 8C12 6.93913 11.5786 5.92172 10.8284 5.17157C10.0783 4.42143 9.06087 4 8 4C6.93913 4 5.92172 4.42143 5.17157 5.17157C4.42143 5.92172 4 6.93913 4 8C4 9.06087 4.42143 10.0783 5.17157 10.8284C5.92172 11.5786 6.93913 12 8 12ZM10.61 8C10.61 8.69222 10.335 9.35608 9.84555 9.84555C9.35608 10.335 8.69222 10.61 8 10.61C7.30778 10.61 6.64392 10.335 6.15445 9.84555C5.66498 9.35608 5.39 8.69222 5.39 8C5.39 7.30778 5.66498 6.64392 6.15445 6.15445C6.64392 5.66498 7.30778 5.39 8 5.39C8.69222 5.39 9.35608 5.66498 9.84555 6.15445C10.335 6.64392 10.61 7.30778 10.61 8Z" fill="black"/>
</svg>
