<svg width="24" height="24" viewBox="0 0 24 24" fill="none" xmlns="http://www.w3.org/2000/svg">
<path d="M20 24H4C1.8 24 0 22.2 0 20V4C0 1.8 1.8 0 4 0H20C22.2 0 24 1.8 24 4V20C24 22.2 22.2 24 20 24ZM19 8.3C19.1 8 19 7.7 18.5 7.7H17C16.6 7.7 16.4 7.9 16.3 8.2C16.3 8.2 15.5 10.2 14.3 11.5C13.9 11.9 13.8 12 13.6 12C13.5 12 13.4 11.9 13.4 11.5V8.3C13.4 7.9 13.3 7.7 12.9 7.7H10.4C10.1 7.7 10 7.9 10 8C10 8.4 10.6 8.5 10.6 9.6V11.9C10.6 12.4 10.5 12.5 10.3 12.5C9.8 12.5 8.4 10.5 7.7 8.3C7.5 7.9 7.4 7.7 7 7.7H5.4C4.9 7.7 4.9 7.9 4.9 8.2C4.9 8.6 5.4 10.7 7.4 13.5C8.7 15.4 10.6 16.4 12.3 16.4C13.3 16.4 13.4 16.2 13.4 15.8V14.4C13.4 13.9 13.5 13.9 13.8 13.9C14 13.9 14.4 14 15.4 14.9C16.5 16 16.7 16.5 17.3 16.5H18.9C19.4 16.5 19.6 16.3 19.5 15.8C19.4 15.4 18.8 14.7 18.2 13.9L17.1 12.8C16.9 12.5 16.9 12.4 17.1 12.1C16.9 11.9 18.8 9.2 19 8.3Z" fill="white"/>
</svg>
