<?xml version="1.0" encoding="utf-8"?><svg viewBox="0 0 24 24" xmlns="http://www.w3.org/2000/svg" xmlns:xlink="http://www.w3.org/1999/xlink"><style>:root>svg{display:none}:root>svg:target{display:block}</style><svg fill="none" viewBox="0 0 24 24" id="fav-btn" xmlns="http://www.w3.org/2000/svg">
    <path d="M4.5 22V4.222c0-.61.21-1.134.63-1.57C5.55 2.217 6.054 2 6.643 2h10.714c.59 0 1.094.217 1.514.652.42.436.629.96.629 1.57V22L12 18.667 4.5 22Z" fill="#fff"/>
    <path d="m19.297 22.457.703.312V4.222c0-.739-.259-1.387-.769-1.917a2.531 2.531 0 0 0-1.874-.805H6.643c-.729 0-1.362.275-1.873.805A2.68 2.68 0 0 0 4 4.222V22.77l.703-.313L12 19.214l7.297 3.243ZM17.5 18.922l-5.297-2.354-.203-.09-.203.09L6.5 18.922v-14.7c0-.067.009-.094.014-.106a.244.244 0 0 1 .056-.076.341.341 0 0 1 .043-.039.276.276 0 0 1 .03-.001h10.714l.031.001c.007.005.02.016.043.04.04.04.05.063.055.074.005.012.014.04.014.107v14.7Z" fill="#888"/>
    <path d="M17.384 3.998V4M19.298 22.457l.703.312V4.222c0-.739-.259-1.387-.769-1.917a2.531 2.531 0 0 0-1.874-.805H6.643c-.729 0-1.362.275-1.873.805A2.68 2.68 0 0 0 4 4.222V22.77l.703-.313L12 19.214l7.297 3.243ZM17.5 18.922l-5.297-2.354-.203-.09-.203.09L6.5 18.922v-14.7c0-.067.009-.094.014-.106a.244.244 0 0 1 .056-.076.341.341 0 0 1 .043-.039.276.276 0 0 1 .03-.001h10.714l.031.001c.007.005.02.016.043.04.04.04.05.063.055.074.005.012.014.04.014.107v14.7Z" stroke="#fff"/>
</svg></svg>